<?xml version="1.0" encoding="UTF-8"?>
<svg width="62px" height="83px" viewBox="0 0 62 83" version="1.1" xmlns="http://www.w3.org/2000/svg" xmlns:xlink="http://www.w3.org/1999/xlink">
    <!-- Generator: Sketch 51.2 (57519) - http://www.bohemiancoding.com/sketch -->
    <title>Milestone_Logo_V1</title>
    <desc>Created with Sketch.</desc>
    <defs></defs>
    <g id="Page-1" stroke="none" stroke-width="1" fill="none" fill-rule="evenodd">
        <g id="iPad" transform="translate(-1636.000000, -2067.000000)">
            <g id="Milestone_Logo_V1" transform="translate(1636.000000, 2067.000000)">
                <g>
                    <path d="M21.8276281,4.36569445 L27.9242172,5.23663574 L33.7373148,0.317860837 L29.1118034,0.723606798 L21.8276281,4.36569445 Z" id="Path-9-Copy-6" stroke="#887496" stroke-width="0.5" fill="#F9F9F9" fill-rule="nonzero"></path>
                    <polygon id="Path-9-Copy-12" fill="#3D1354" fill-rule="nonzero" points="33 7 28 5.5 34.5 0 61.5 26.5 44 19"></polygon>
                    <polygon id="Path-9-Copy-13" fill="#887496" fill-rule="nonzero" points="39 41.5 44 19 61.5 26.5 55 69 48 62.5"></polygon>
                    <polygon id="Path-9-Copy-14" fill="#27103A" fill-rule="nonzero" points="17 46.5 39 41.5 48 62.5 42.5 82.5 13 70"></polygon>
                    <polygon id="Path-9-Copy-7" fill="#887496" fill-rule="nonzero" points="3 44.5 7.5 30.5 12 29.5 17 46.5"></polygon>
                    <polygon id="Path-9-Copy-8" fill="#3D1053" fill-rule="nonzero" points="13 70 3.5 61.5 0 53 1.5 33.5 8.5 30.5 3.5 44.5 17 46.5 19.5 62"></polygon>
                    <polygon id="Path-9-Copy-9" fill="#F9F9F9" fill-rule="nonzero" points="17 46.5 12 29.5 28 5.5 33 7 43.5 18.5 39 41"></polygon>
                    <polygon id="Path-9-Copy-10" fill="#563571" fill-rule="nonzero" points="38 76 48 62.5 55 69 42.5 82.5"></polygon>
                    <polygon id="Path-9-Copy-15" fill="#3D1053" fill-rule="nonzero" points="13 70 19.5 62 38 76 42.5 82.5"></polygon>
                    <polygon id="Path-9-Copy-11" fill="#887496" fill-rule="nonzero" points="1.5 33.5 21 4.5 28 5.5 12 29.5 7.5 31"></polygon>
                </g>
            </g>
        </g>
    </g>
</svg>